<?xml version="1.0" encoding="UTF-8" standalone="no"?>
<!-- Altered from helpmivote.org.svg -->
<svg xmlns="http://www.w3.org/2000/svg" version="1.1" width="270" height="270">
  <rect fill="#0f1633" width="270" height="270"/>
  <g transform="translate(5 49)">
  <g transform="translate(47)">
  <path fill="#ffffff" d="M 102.97,5.95 104.20,4.59 105.64,4.11 109.18,1.52 110.68,1.18 110.96,1.45 107.55,4.86 105.36,6.09 104.00,6.70 102.97,5.95 z M 159.75,27.10 160.16,28.74 162.27,28.81 163.09,28.06 C 163.09,28.06 163.09,27.11 162.89,27.04 162.68,26.97 161.86,25.88 161.86,25.88 L 160.43,26.01 159.41,26.08 159.20,26.76 159.82,27.04 z M 179.54,68.66 177.42,63.27 175.99,57.33 174.42,55.22 172.71,54.06 171.69,54.74 169.16,55.90 167.94,59.18 166.16,61.56 165.48,61.97 164.52,61.56 C 164.52,61.56 162.82,60.61 162.95,60.20 163.02,59.79 163.23,56.92 163.23,56.92 L 165.41,56.11 165.89,53.92 166.30,52.22 167.87,51.19 167.66,44.64 166.64,43.21 165.82,42.73 165.34,41.37 165.82,40.89 166.84,41.09 166.91,40.07 165.34,38.64 164.52,36.93 162.82,36.93 159.88,35.98 156.27,33.79 154.49,33.79 154.08,34.20 153.47,33.93 151.49,32.50 149.58,33.66 147.67,35.09 147.87,37.41 148.49,37.61 149.85,37.89 150.13,38.36 148.42,38.84 146.71,39.05 145.76,40.21 145.55,41.57 145.76,42.59 145.96,46.21 143.64,47.58 143.23,47.51 143.23,44.78 144.05,43.21 144.46,41.64 143.98,41.16 142.76,41.64 142.14,44.37 140.37,45.05 139.21,46.28 139.14,46.89 139.55,47.37 139.14,49.08 137.71,49.35 137.71,50.03 138.18,51.60 137.50,55.63 136.48,58.29 136.89,61.36 137.16,62.04 136.68,63.61 136.48,64.09 136.27,65.86 138.59,69.75 140.50,73.98 141.46,77.12 140.98,80.19 140.37,84.08 138.80,87.49 138.59,89.27 136.61,91.32 136.14,91.79 139.14,91.73 153.61,90.29 157.63,89.88 157.84,90.63 162.95,89.88 169.64,88.86 173.05,88.59 172.23,87.84 172.30,86.88 173.67,84.49 174.96,83.40 174.83,80.12 175.85,79.10 176.53,78.90 176.67,76.58 177.63,74.60 178.31,74.94 178.38,75.35 178.85,75.42 180.08,74.80 179.88,68.52 z M 92.94,25.47 94.10,24.78 95.95,24.31 98.27,22.87 98.27,22.26 98.68,21.85 102.56,21.24 104.13,20.01 107.00,18.64 107.07,17.82 108.30,15.91 109.46,15.44 110.28,14.28 111.71,12.84 114.57,11.27 117.65,11.00 118.33,11.68 118.12,12.30 115.73,12.91 114.78,14.89 113.35,15.37 113.07,16.94 111.50,19.05 111.30,20.76 111.78,21.03 112.39,20.35 114.71,18.44 115.53,19.26 116.96,19.26 119.08,19.87 120.03,20.55 120.99,22.53 122.76,24.31 125.29,24.24 126.24,23.62 127.27,24.44 128.29,24.72 129.11,24.24 129.79,24.24 130.81,23.62 133.48,21.30 135.66,20.62 140.03,20.42 142.96,19.19 144.67,18.37 145.62,18.44 145.62,22.12 145.90,22.33 147.81,22.81 149.03,22.53 153.06,21.51 153.74,20.83 154.70,21.10 154.70,25.67 156.81,27.65 157.63,28.06 158.45,28.67 157.63,28.88 157.15,28.67 154.77,28.40 153.40,28.81 151.97,28.74 149.85,29.70 148.69,29.70 144.87,28.88 141.46,28.95 140.23,30.65 135.66,31.06 134.09,31.54 133.41,33.52 132.59,34.20 132.32,34.13 131.36,33.11 128.43,34.68 128.02,34.68 127.33,33.66 126.86,33.72 125.63,36.59 125.01,39.25 122.56,44.57 121.81,43.82 120.92,42.94 119.83,36.11 117.44,35.36 116.55,33.86 108.23,32.09 106.59,31.27 101.13,29.77 95.74,29.02 92.94,25.47 z"/>
  <text x="-2.59" y="94.52" style="font-size:60px;font-style:normal;font-variant:normal;font-weight:normal;font-stretch:normal;line-height:125%;letter-spacing:0px;word-spacing:0px;fill:#ffffff;fill-opacity:1;stroke:none;font-family:Finger Paint;-inkscape-font-specification:Finger Paint"><tspan x="-2.59" y="94.52">Help</tspan></text>
  <text x="144.39" y="86.67" style="font-size:30px;font-style:normal;font-weight:normal;line-height:125%;letter-spacing:0px;word-spacing:0px;fill:#0f1633;fill-opacity:1;stroke:none;font-family:Sans"><tspan x="144.39" y="86.67" rotate="348 348 0" style="font-size:25px;font-style:normal;font-variant:normal;font-weight:normal;font-stretch:normal;fill:#0f1633;fill-opacity:1;font-family:Finger Paint;-inkscape-font-specification:Finger Paint">MI</tspan></text>
  </g>
  <text transform="translate(-184.68 57)" x="184.68" y="94.52" style="font-size:60px;font-style:normal;font-variant:normal;font-weight:normal;font-stretch:normal;line-height:125%;letter-spacing:0px;word-spacing:0px;fill:#ffffff;fill-opacity:1;stroke:none;font-family:Finger Paint;-inkscape-font-specification:Finger Paint"><tspan x="184.68" y="94.52">Vote.org</tspan></text>
  </g>
</svg>
